<svg width="12" height="12" viewBox="0 0 12 12" fill="none" xmlns="http://www.w3.org/2000/svg">
<path d="M11.1198 2.00001C11.1961 2.07519 11.2391 2.17786 11.2391 2.28501C11.2391 2.39215 11.1961 2.49482 11.1198 2.57001L7.9998 5.71001C7.92346 5.78519 7.88047 5.88786 7.88047 5.99501C7.88047 6.10215 7.92346 6.20482 7.9998 6.28001L11.1398 9.42001C11.2161 9.49519 11.2591 9.59786 11.2591 9.70501C11.2591 9.81215 11.2161 9.91482 11.1398 9.99001L9.9998 11.13C9.84087 11.2837 9.58873 11.2837 9.4298 11.13L6.2698 8.00001C6.11087 7.84633 5.85873 7.84633 5.6998 8.00001L2.5598 11.12C2.40087 11.2737 2.14873 11.2737 1.9898 11.12L0.8498 10C0.773457 9.92482 0.730469 9.82215 0.730469 9.715C0.730469 9.60786 0.773457 9.50519 0.8498 9.43001L3.9998 6.28001C4.07614 6.20482 4.11913 6.10215 4.11913 5.99501C4.11913 5.88786 4.07614 5.78519 3.9998 5.71001L0.8498 2.57001C0.773457 2.49482 0.730469 2.39215 0.730469 2.28501C0.730469 2.17786 0.773457 2.07519 0.8498 2.00001L1.9998 0.860005C2.15873 0.706333 2.41087 0.706333 2.5698 0.860005L5.6998 4.00001C5.77498 4.07635 5.87765 4.11934 5.9848 4.11934C6.09195 4.11934 6.19462 4.07635 6.2698 4.00001L9.4098 0.870005C9.56873 0.716333 9.82087 0.716333 9.9798 0.870005L11.1198 2.00001Z" fill="black"/>
</svg>
